<mxfile host="65bd71144e">
    <diagram id="EPTVFn-wwRFkb9lQVKoc" name="Page-1">
        <mxGraphModel dx="712" dy="326" grid="1" gridSize="10" guides="1" tooltips="1" connect="1" arrows="1" fold="1" page="1" pageScale="1" pageWidth="827" pageHeight="1169" math="0" shadow="0">
            <root>
                <mxCell id="0"/>
                <mxCell id="1" parent="0"/>
                <mxCell id="36" value="sm" style="shape=umlFrame;whiteSpace=wrap;html=1;" vertex="1" parent="1">
                    <mxGeometry x="20" y="20" width="660" height="270" as="geometry"/>
                </mxCell>
                <mxCell id="16" value="" style="ellipse;html=1;shape=startState;fillColor=#000000;strokeColor=#ff0000;" vertex="1" parent="1">
                    <mxGeometry x="30" y="65" width="30" height="30" as="geometry"/>
                </mxCell>
                <mxCell id="17" value="" style="edgeStyle=orthogonalEdgeStyle;html=1;verticalAlign=bottom;endArrow=open;endSize=8;strokeColor=#ff0000;entryX=0;entryY=0;entryDx=0;entryDy=0;" edge="1" source="16" parent="1" target="20">
                    <mxGeometry relative="1" as="geometry">
                        <mxPoint x="75" y="200" as="targetPoint"/>
                        <Array as="points">
                            <mxPoint x="190" y="80"/>
                            <mxPoint x="190" y="80"/>
                        </Array>
                    </mxGeometry>
                </mxCell>
                <mxCell id="19" value="Stufe 1" style="swimlane;fontStyle=1;align=center;verticalAlign=middle;childLayout=stackLayout;horizontal=1;startSize=30;horizontalStack=0;resizeParent=0;resizeLast=1;container=0;fontColor=#000000;collapsible=0;rounded=1;arcSize=30;strokeColor=#ff0000;fillColor=#ffffc0;swimlaneFillColor=#ffffc0;dropTarget=0;" vertex="1" parent="1">
                    <mxGeometry x="240" y="50" width="200" height="60" as="geometry"/>
                </mxCell>
                <mxCell id="20" value="&lt;b&gt;do&lt;/b&gt; / langsames Drehen" style="text;html=1;strokeColor=none;fillColor=none;align=center;verticalAlign=middle;spacingLeft=4;spacingRight=4;whiteSpace=wrap;overflow=hidden;rotatable=0;fontColor=#000000;" vertex="1" parent="19">
                    <mxGeometry y="30" width="200" height="30" as="geometry"/>
                </mxCell>
                <mxCell id="22" value="&lt;b&gt;do&lt;/b&gt; / langsames Drehen" style="text;html=1;strokeColor=none;fillColor=none;align=center;verticalAlign=middle;spacingLeft=4;spacingRight=4;whiteSpace=wrap;overflow=hidden;rotatable=0;fontColor=#000000;" vertex="1" parent="19">
                    <mxGeometry y="60" width="200" as="geometry"/>
                </mxCell>
                <mxCell id="24" value="Stufe 2" style="swimlane;fontStyle=1;align=center;verticalAlign=middle;childLayout=stackLayout;horizontal=1;startSize=30;horizontalStack=0;resizeParent=0;resizeLast=1;container=0;fontColor=#000000;collapsible=0;rounded=1;arcSize=30;strokeColor=#ff0000;fillColor=#ffffc0;swimlaneFillColor=#ffffc0;dropTarget=0;" vertex="1" parent="1">
                    <mxGeometry x="235" y="210" width="210" height="60" as="geometry"/>
                </mxCell>
                <mxCell id="25" value="&lt;b&gt;do&lt;/b&gt; / schnelles Drehen" style="text;html=1;strokeColor=none;fillColor=none;align=center;verticalAlign=middle;spacingLeft=4;spacingRight=4;whiteSpace=wrap;overflow=hidden;rotatable=0;fontColor=#000000;" vertex="1" parent="24">
                    <mxGeometry y="30" width="210" height="30" as="geometry"/>
                </mxCell>
                <mxCell id="26" value="&lt;b&gt;do&lt;/b&gt; / langsames Drehen" style="text;html=1;strokeColor=none;fillColor=none;align=center;verticalAlign=middle;spacingLeft=4;spacingRight=4;whiteSpace=wrap;overflow=hidden;rotatable=0;fontColor=#000000;" vertex="1" parent="24">
                    <mxGeometry y="60" width="210" as="geometry"/>
                </mxCell>
                <mxCell id="27" value="Stufe 1 gewählt/&#10;Schalte1()" style="text;align=center;fontStyle=1;verticalAlign=middle;spacingLeft=3;spacingRight=3;strokeColor=none;rotatable=0;points=[[0,0.5],[1,0.5]];portConstraint=eastwest;" vertex="1" parent="1">
                    <mxGeometry x="90" y="39" width="100" height="26" as="geometry"/>
                </mxCell>
                <mxCell id="28" value="ausgeschaltet/&#10;Schalte1()" style="text;align=center;fontStyle=1;verticalAlign=middle;spacingLeft=3;spacingRight=3;strokeColor=none;rotatable=0;points=[[0,0.5],[1,0.5]];portConstraint=eastwest;" vertex="1" parent="1">
                    <mxGeometry x="490" y="39" width="100" height="26" as="geometry"/>
                </mxCell>
                <mxCell id="29" value="" style="ellipse;html=1;shape=endState;fillColor=#000000;strokeColor=#ff0000;" vertex="1" parent="1">
                    <mxGeometry x="620" y="65" width="30" height="30" as="geometry"/>
                </mxCell>
                <mxCell id="31" value="" style="edgeStyle=orthogonalEdgeStyle;html=1;verticalAlign=bottom;endArrow=open;endSize=8;strokeColor=#ff0000;entryX=0;entryY=0.5;entryDx=0;entryDy=0;exitX=1;exitY=0;exitDx=0;exitDy=0;" edge="1" parent="1" source="20" target="29">
                    <mxGeometry relative="1" as="geometry">
                        <mxPoint x="250" y="90" as="targetPoint"/>
                        <mxPoint x="490" y="150" as="sourcePoint"/>
                        <Array as="points">
                            <mxPoint x="550" y="80"/>
                            <mxPoint x="550" y="80"/>
                        </Array>
                    </mxGeometry>
                </mxCell>
                <mxCell id="32" value="" style="edgeStyle=orthogonalEdgeStyle;html=1;verticalAlign=bottom;endArrow=open;endSize=8;strokeColor=#ff0000;entryX=0.75;entryY=0;entryDx=0;entryDy=0;exitX=0.764;exitY=0;exitDx=0;exitDy=0;exitPerimeter=0;" edge="1" parent="1" source="22" target="24">
                    <mxGeometry relative="1" as="geometry">
                        <mxPoint x="630" y="90" as="targetPoint"/>
                        <mxPoint x="393" y="120" as="sourcePoint"/>
                        <Array as="points">
                            <mxPoint x="393" y="160"/>
                        </Array>
                    </mxGeometry>
                </mxCell>
                <mxCell id="33" value="" style="edgeStyle=orthogonalEdgeStyle;html=1;verticalAlign=bottom;endArrow=open;endSize=8;strokeColor=#ff0000;entryX=0.202;entryY=0;entryDx=0;entryDy=0;exitX=0.219;exitY=-0.007;exitDx=0;exitDy=0;entryPerimeter=0;exitPerimeter=0;" edge="1" parent="1" source="24" target="22">
                    <mxGeometry relative="1" as="geometry">
                        <mxPoint x="402.5" y="220" as="targetPoint"/>
                        <mxPoint x="280" y="170" as="sourcePoint"/>
                        <Array as="points">
                            <mxPoint x="280" y="190"/>
                        </Array>
                    </mxGeometry>
                </mxCell>
                <mxCell id="34" value="Stufe 2 gewählt/&#10;Schalte2()" style="text;align=center;fontStyle=1;verticalAlign=middle;spacingLeft=3;spacingRight=3;strokeColor=none;rotatable=0;points=[[0,0.5],[1,0.5]];portConstraint=eastwest;" vertex="1" parent="1">
                    <mxGeometry x="160" y="150" width="100" height="26" as="geometry"/>
                </mxCell>
                <mxCell id="35" value="Stufe 1 gewählt/&#10;Schalte1()" style="text;align=center;fontStyle=1;verticalAlign=middle;spacingLeft=3;spacingRight=3;strokeColor=none;rotatable=0;points=[[0,0.5],[1,0.5]];portConstraint=eastwest;" vertex="1" parent="1">
                    <mxGeometry x="414" y="150" width="100" height="26" as="geometry"/>
                </mxCell>
            </root>
        </mxGraphModel>
    </diagram>
</mxfile>